<?xml version="1.0" encoding="UTF-8"?>
<svg width="30px" height="36px" viewBox="0 0 30 36" version="1.1" xmlns="http://www.w3.org/2000/svg" xmlns:xlink="http://www.w3.org/1999/xlink">
    <!-- Generator: Sketch 47.1 (45422) - http://www.bohemiancoding.com/sketch -->
    <title>icon_electricity</title>
    <desc>Created with Sketch.</desc>
    <defs></defs>
    <g id="Page-1" stroke="none" stroke-width="1" fill="none" fill-rule="evenodd">
        <g id="我的_电费单_上传电费单" transform="translate(-35.000000, -478.000000)" fill-rule="nonzero" fill="#888888">
            <g id="表单/选择/多行列表-" transform="translate(0.000000, 276.000000)">
                <g id="列表三" transform="translate(0.000000, 176.000000)">
                    <path d="M61.702439,55.8070444 L38.2878049,55.8070444 C36.4731707,55.8070444 35,57.194487 35,58.9035222 C35,60.6125574 36.4731707,62 38.2878049,62 L61.702439,62 C63.5170731,62 64.9902439,60.6125574 64.9902439,58.9035222 C65,57.194487 63.5268292,55.8070444 61.702439,55.8070444 Z M62.3756097,26 L37.6243903,26 C36.1707317,26 35,27.1026034 35,28.4716692 L35,52.6094946 C35,53.9785605 36.1707317,55.0811638 37.6243903,55.0811638 L62.3756097,55.0811638 C63.8292683,55.0811638 65,53.9785605 65,52.6094946 L65,28.4716692 C65,27.1026034 63.8195122,26 62.3756097,26 Z M62.1609756,50.7075038 C62.1609756,51.7457887 61.2341463,52.5911179 60.0829268,52.5911179 L39.9170732,52.5911179 C38.7658537,52.5911179 37.8390244,51.7457887 37.8390244,50.7075038 L37.8390244,30.37366 C37.8390244,29.3353752 38.7658537,28.4900459 39.9170732,28.4900459 L60.0829268,28.4900459 C61.2341463,28.4900459 62.1609756,29.3353752 62.1609756,30.37366 L62.1609756,50.7075038 L62.1609756,50.7075038 Z M43.1560976,36.4379786 L41.2048781,36.4379786 C40.9902439,36.4379786 40.8146341,36.2725881 40.8146341,36.0704441 L40.8146341,34.2327718 C40.8146341,34.0306279 40.9902439,33.8652374 41.2048781,33.8652374 L43.1560976,33.8652374 C43.3707317,33.8652374 43.5463415,34.0306279 43.5463415,34.2327718 L43.5463415,36.0704441 C43.5463415,36.2725881 43.3707317,36.4379786 43.1560976,36.4379786 Z M48.2682927,36.4379786 L46.3170732,36.4379786 C46.102439,36.4379786 45.9268292,36.2725881 45.9268293,36.0704441 L45.9268293,34.2327718 C45.9268293,34.0306279 46.1024391,33.8652374 46.3170732,33.8652374 L48.2682927,33.8652374 C48.4829268,33.8652374 48.6585366,34.0306279 48.6585366,34.2327718 L48.6585366,36.0704441 C48.6585366,36.2725881 48.4829268,36.4379786 48.2682927,36.4379786 Z M53.3804878,36.4379786 L51.4292683,36.4379786 C51.2146342,36.4379786 51.0390244,36.2725881 51.0390244,36.0704441 L51.0390244,34.2327718 C51.0390244,34.0306279 51.2146342,33.8652374 51.4292683,33.8652374 L53.3804878,33.8652374 C53.5951219,33.8652374 53.7707317,34.0306279 53.7707317,34.2327718 L53.7707317,36.0704441 C53.7707317,36.2725881 53.5951219,36.4379786 53.3804878,36.4379786 Z M58.4829268,36.4379786 L56.5317073,36.4379786 C56.3170732,36.4379786 56.1414634,36.2725881 56.1414634,36.0704441 L56.1414634,34.2327718 C56.1414634,34.0306279 56.3170732,33.8652374 56.5317073,33.8652374 L58.4829268,33.8652374 C58.697561,33.8652374 58.8731707,34.0306279 58.8731707,34.2327718 L58.8731707,36.0704441 C58.8731707,36.2725881 58.7073171,36.4379786 58.4829268,36.4379786 Z M42.1804878,45.1209801 C42.1804878,44.1111363 45.7753137,43.2924962 50.2097561,43.2924962 C54.6441985,43.2924962 58.2390244,44.1111363 58.2390244,45.1209801 C58.2390244,46.1308239 54.6441985,46.949464 50.2097561,46.949464 C45.7753137,46.949464 42.1804878,46.1308239 42.1804878,45.1209801 Z" id="icon_electricity"></path>
                </g>
            </g>
        </g>
    </g>
</svg>