<?xml version="1.0" encoding="UTF-8"?>
<svg width="32px" height="36px" viewBox="0 0 32 36" version="1.1" xmlns="http://www.w3.org/2000/svg" xmlns:xlink="http://www.w3.org/1999/xlink">
    <!-- Generator: Sketch 47.1 (45422) - http://www.bohemiancoding.com/sketch -->
    <title>icon_lastyear_load</title>
    <desc>Created with Sketch.</desc>
    <defs></defs>
    <g id="Page-1" stroke="none" stroke-width="1" fill="none" fill-rule="evenodd">
        <g id="我的企业" transform="translate(-33.000000, -1389.000000)" fill-rule="nonzero" fill="#888888">
            <g id="表单/选择/多行列表-" transform="translate(0.000000, 1275.000000)">
                <g id="列表二" transform="translate(0.000000, 88.000000)">
                    <g id="峰谷差" transform="translate(33.000000, 26.000000)">
                        <path d="M26,32.5 L26,33.667 C26,34.9554803 24.9554803,36 23.667,36 L8.33299998,36 C7.04451967,36 6.00000001,34.9554803 6.00000001,33.667 L6.00000001,32.5 L4.392,32.5 C3.22716918,32.5 2.11004679,32.0372727 1.28638702,31.213613 C0.462727243,30.3899532 2.49800181e-16,29.2728308 0,28.108 L0,4.392 C2.49800181e-16,1.96636538 1.96636538,3.90071797e-16 4.392,0 L27.608,0 C28.7728308,-9.63252283e-16 29.8899532,0.462727243 30.713613,1.28638702 C31.5372728,2.11004679 32,3.22716918 32,4.392 L32,28.108 C32,30.5336346 30.0336346,32.5 27.608,32.5 L26,32.5 Z M4.392,2.99999999 C3.62321962,2.99999999 2.99999999,3.62321962 2.99999999,4.392 L2.99999999,28.108 C2.99999999,28.8767804 3.62321962,29.5 4.392,29.5 L27.608,29.5 C28.3767804,29.5 29,28.8767804 29,28.108 L29,4.392 C29,3.62321962 28.3767804,2.99999999 27.608,2.99999999 L4.392,2.99999999 Z M12.6635,20.6535 L11.6055,19.0305 L9.87799999,22.4505 C9.70800471,22.7873875 9.36284803,22.9998957 8.98549998,23 L6.00000001,23 C5.44771526,23 5.00000001,22.5522847 5.00000001,22 C5.00000001,21.4477152 5.44771526,21 6.00000001,21 L8.37,21 L10.6025,16.58 C10.95,15.892 11.9125,15.839 12.333,16.485 L13.256,17.9 L16.6985,8.651 C17.0495,7.70800001 18.4165,7.81600001 18.6155,8.802 L19.6245,13.7935 L20.546,11.755 C20.878,11.02 21.899,10.9605 22.3145,11.652 L23.7595,14.0555 L26,14.0555 C26.3572656,14.0555 26.6873926,14.2460989 26.8660254,14.5555 C27.0446582,14.8649011 27.0446582,15.2460989 26.8660254,15.5555 C26.6873926,15.8649011 26.3572656,16.0555 26,16.0555 L23.1935,16.0555 C22.8425146,16.0554333 22.5172575,15.8713613 22.3365,15.5705 L21.583,14.317 L20.17,17.4425 C19.77,18.3275 18.471,18.1805 18.2785,17.229 L17.35,12.634 L14.4385,20.456 C14.152,21.2255 13.112,21.341 12.6635,20.6535 L12.6635,20.6535 Z" id="icon_lastyear_load"></path>
                    </g>
                </g>
            </g>
        </g>
    </g>
</svg>