<?xml version="1.0" encoding="UTF-8"?>
<svg width="36px" height="36px" viewBox="0 0 36 36" version="1.1" xmlns="http://www.w3.org/2000/svg" xmlns:xlink="http://www.w3.org/1999/xlink">
    <!-- Generator: Sketch 47.1 (45422) - http://www.bohemiancoding.com/sketch -->
    <title>icon_money</title>
    <desc>Created with Sketch.</desc>
    <defs></defs>
    <g id="Page-1" stroke="none" stroke-width="1" fill="none" fill-rule="evenodd">
        <g id="我的_电费单_上传电费单" transform="translate(-32.000000, -566.000000)" fill-rule="nonzero" fill="#888888">
            <g id="表单/选择/多行列表-" transform="translate(0.000000, 276.000000)">
                <g id="列表四" transform="translate(0.000000, 264.000000)">
                    <path d="M62.6786068,31.2725937 C55.6557972,24.2424688 44.3073685,24.2424688 37.2845589,31.2725937 C30.2617494,38.3027187 30.2269107,49.6955937 37.2497202,56.7257187 C44.2725298,63.7569687 55.6895121,63.7569687 62.7134455,56.7257187 C69.7362551,49.6955937 69.7014164,38.3027187 62.6786068,31.2725937 Z M56.6369003,43.0063437 L56.6369003,46.5624688 L51.7695954,46.5624688 L51.7695954,47.9900937 L56.6369003,47.9900937 L56.6369003,51.4944688 L51.7695954,51.4944688 L51.7695954,55.2879688 L47.8642884,55.2879688 L47.8642884,51.4944688 L43.0183363,51.4944687 L43.0183363,47.9900937 L47.8642884,47.9900937 L47.8642884,46.5624687 L43.0183363,46.5624688 L43.0183363,43.0063437 L45.9672645,43.0063437 L41.4741947,34.2414687 L45.9234351,34.2414687 L48.8128004,40.2478438 C49.1791687,41.0195937 49.4387733,41.4932187 49.5927379,42.0815937 C49.7759221,41.4448437 50.0366505,40.9712187 50.3737993,40.2478438 L53.3204799,34.2414687 L57.7697202,34.2414687 L53.2193352,43.0063437 L56.6369003,43.0063437 Z" id="icon_money"></path>
                </g>
            </g>
        </g>
    </g>
</svg>