<?xml version="1.0" encoding="UTF-8"?>
<svg width="32px" height="36px" viewBox="0 0 32 36" version="1.1" xmlns="http://www.w3.org/2000/svg" xmlns:xlink="http://www.w3.org/1999/xlink">
    <!-- Generator: Sketch 47.1 (45422) - http://www.bohemiancoding.com/sketch -->
    <title>icon_year_load</title>
    <desc>Created with Sketch.</desc>
    <defs></defs>
    <g id="Page-1" stroke="none" stroke-width="1" fill="none" fill-rule="evenodd">
        <g id="我的企业" transform="translate(-33.000000, -1565.000000)" fill-rule="nonzero" fill="#888888">
            <g id="表单/选择/多行列表-" transform="translate(0.000000, 1275.000000)">
                <g id="列表四" transform="translate(0.000000, 264.000000)">
                    <g id="平均电量" transform="translate(33.000000, 26.000000)">
                        <path d="M25.9805068,32.5 L25.9805068,33.667 C25.9805068,34.9554803 24.9380232,36 23.6520546,36 L8.3479454,36 C7.06197675,36 6.01949319,34.9554803 6.01949319,33.667 L6.01949319,32.5 L4.41462768,32.5 C3.25206749,32.5 2.13712273,32.0372727 1.31506853,31.213613 C0.493014328,30.3899532 0.0311890877,29.2728308 0.0311890877,28.108 L0.0311890877,4.392 C0.0311890877,1.96636538 1.9937214,3.90071797e-16 4.41462768,0 L27.5853723,0 C28.7479325,-9.63252283e-16 29.8628773,0.462727243 30.6849315,1.28638702 C31.5069857,2.11004679 31.9688109,3.22716918 31.9688109,4.392 L31.9688109,28.108 C31.9688109,30.5336346 30.0062786,32.5 27.5853723,32.5 L25.9805068,32.5 Z M4.41462768,2.99999999 C3.6473459,2.99999999 3.02534112,3.62321962 3.02534112,4.392 L3.02534112,28.108 C3.02534112,28.8767804 3.6473459,29.5 4.41462768,29.5 L27.5853723,29.5 C28.3526541,29.5 28.9746589,28.8767804 28.9746589,28.108 L28.9746589,4.392 C28.9746589,3.62321962 28.3526541,2.99999999 27.5853723,2.99999999 L4.41462768,2.99999999 Z M22.1330214,17.9895 L19.4996647,17.9895 L19.4996647,16.4895 L22.1330214,16.4895 L22.1330214,17.9895 Z M17.7406004,16.4895 L15.1077427,16.4895 L15.1077427,17.9895 L17.7406004,17.9895 L17.7406004,16.4895 Z M26.5249435,16.4895 L23.8920858,16.4895 L23.8920858,17.9895 L26.5249435,17.9895 L26.5249435,16.4895 Z M13.3486784,16.4895 L10.7153216,16.4895 L10.7153216,17.9895 L13.3481793,17.9895 L13.3481793,16.4895 L13.3486784,16.4895 Z M8.95675635,16.4895 L6.32339961,16.4895 L6.32339961,17.9895 L8.95675635,17.9895 L8.95675635,16.4895 Z M18.28354,14.5865 C19.681809,11.792 21.0431501,10.495 22.2557817,10.5 C23.7169279,10.506 24.8058012,10.874 25.5733021,11.5835 L26.9271579,10.114 C25.7644288,9.03899999 24.1939961,8.5075 22.2642651,8.50000001 C20.0865185,8.4915 18.2021988,10.287 16.4990253,13.69 L18.28354,14.5865 Z M5.52046782,24.138 C6.75904874,25.3125 8.43427681,25.8085 10.4737934,25.65 C12.691961,25.4775 14.5258791,23.651 16.0553918,20.34 L14.2439298,19.5 C12.986386,22.224 11.6514932,23.5525 10.3195945,23.656 C8.80904481,23.7735 7.69072902,23.4425 6.89228849,22.6855 L5.52046782,24.138 Z" id="icon_year_load"></path>
                    </g>
                </g>
            </g>
        </g>
    </g>
</svg>