<?xml version="1.0" encoding="UTF-8"?>
<svg width="36px" height="30px" viewBox="0 0 36 30" version="1.1" xmlns="http://www.w3.org/2000/svg" xmlns:xlink="http://www.w3.org/1999/xlink">
    <!-- Generator: Sketch 47.1 (45422) - http://www.bohemiancoding.com/sketch -->
    <title>icon_phone</title>
    <desc>Created with Sketch.</desc>
    <defs></defs>
    <g id="Page-1" stroke="none" stroke-width="1" fill="none" fill-rule="evenodd">
        <g id="我的企业" transform="translate(-31.000000, -1998.000000)" fill-rule="nonzero" fill="#888888">
            <g id="表单/选择/多行列表-" transform="translate(0.000000, 1705.000000)">
                <g id="列表四" transform="translate(0.000000, 264.000000)">
                    <g id="电话-(3)" transform="translate(31.000000, 29.000000)">
                        <path d="M29.9880893,10.5172353 C26.2421856,9.28503486 27.7444859,6.93767731 25.4948797,6.02598956 C21.6755446,4.47792044 18.0059503,4.52875699 18.0059503,4.52875699 C18.0059503,4.52875699 14.3484438,4.48987956 10.5171854,6.02598956 C8.26301543,6.9301155 9.76967393,9.28499378 6.02377023,10.5172353 C2.06378084,11.819752 -0.00319262946,9.91093663 0.0387857813,7.55289394 C0.0685530402,5.97202968 1.04215576,4.18901112 3.02829718,3.0316888 C8.11319247,0.0675118474 18.0059092,0.0375112851 18.0059092,0.0375112851 C18.0059092,0.0375112851 27.8988315,0.0675529317 32.9836857,3.0316888 C34.9546557,4.18149044 35.9297797,5.94650867 35.9715936,7.51849606 C36.0345818,9.89293627 33.9677317,11.8256699 29.9880893,10.5172353 L29.9880893,10.5172353 Z M12.8939191,9.45398313 L15.443048,9.45398313 L15.443048,12.0225228 L20.5824206,12.0225228 L20.5824206,9.45398313 L23.1521069,9.45398313 L23.1521069,12.0225228 L33.4445435,20.9970003 L33.4445435,26.9853142 C33.4445435,28.6380976 31.6416516,29.9795739 29.9880893,29.9795739 L6.02372917,29.9795739 C4.37024909,29.9795739 2.60834878,28.6380565 2.60834878,26.9853143 L2.60834878,20.9970003 L12.8939603,12.0225228 L12.8939603,9.45398313 L12.8939191,9.45398313 Z M18.0360876,26.1790394 C20.8735558,26.1789983 23.1740213,23.8796005 23.1740213,21.0436039 C23.1740213,18.2073197 20.8735558,15.9079219 18.0360876,15.9079219 C15.198825,15.9079219 12.8983185,18.2073197 12.8983185,21.0436039 C12.8983185,23.8796005 15.198825,26.1790394 18.0360876,26.1790394 L18.0360876,26.1790394 Z" id="icon_phone"></path>
                    </g>
                </g>
            </g>
        </g>
    </g>
</svg>