<?xml version="1.0" encoding="UTF-8"?>
<svg width="32px" height="36px" viewBox="0 0 32 36" version="1.1" xmlns="http://www.w3.org/2000/svg" xmlns:xlink="http://www.w3.org/1999/xlink">
    <!-- Generator: Sketch 47.1 (45422) - http://www.bohemiancoding.com/sketch -->
    <title>icon_lastyear_electricity</title>
    <desc>Created with Sketch.</desc>
    <defs></defs>
    <g id="Page-1" stroke="none" stroke-width="1" fill="none" fill-rule="evenodd">
        <g id="我的企业" transform="translate(-33.000000, -1301.000000)" fill-rule="nonzero" fill="#888888">
            <g id="表单/选择/多行列表-" transform="translate(0.000000, 1275.000000)">
                <g id="列表一">
                    <g id="电量" transform="translate(33.000000, 26.000000)">
                        <path d="M26,32.5 L26,33.667 C26,34.9554803 24.9554803,36 23.667,36 L8.33299998,36 C7.04451967,36 6.00000001,34.9554803 6.00000001,33.667 L6.00000001,32.5 L4.392,32.5 C3.22716918,32.5 2.11004679,32.0372727 1.28638702,31.213613 C0.462727243,30.3899532 2.49800181e-16,29.2728308 0,28.108 L0,4.392 C2.49800181e-16,1.96636538 1.96636538,3.90071797e-16 4.392,0 L27.608,0 C28.7728308,-9.63252283e-16 29.8899532,0.462727243 30.713613,1.28638702 C31.5372728,2.11004679 32,3.22716918 32,4.392 L32,28.108 C32,30.5336346 30.0336346,32.5 27.608,32.5 L26,32.5 Z M4.392,2.99999999 C3.62321962,2.99999999 2.99999999,3.62321962 2.99999999,4.392 L2.99999999,28.108 C2.99999999,28.8767804 3.62321962,29.5 4.392,29.5 L27.608,29.5 C28.3767804,29.5 29,28.8767804 29,28.108 L29,4.392 C29,3.62321962 28.3767804,2.99999999 27.608,2.99999999 L4.392,2.99999999 Z M9,25.5 C9,26.0522847 8.55228475,26.5 8,26.5 C7.44771525,26.5 7,26.0522847 7,25.5 L7,16 C7,15.4477152 7.44771525,15 8,15 C8.55228475,15 9,15.4477152 9,16 L9,25.5 Z M17.5,25.5 C17.5,26.0522847 17.0522848,26.5 16.5,26.5 C15.9477153,26.5 15.5,26.0522847 15.5,25.5 L15.5,11.5 C15.5,10.9477152 15.9477153,10.5 16.5,10.5 C17.0522848,10.5 17.5,10.9477152 17.5,11.5 L17.5,25.5 Z M21.75,25.5 C21.75,26.0522847 21.3022848,26.5 20.75,26.5 C20.1977153,26.5 19.75,26.0522847 19.75,25.5 L19.75,19.5 C19.75,18.9477153 20.1977153,18.5 20.75,18.5 C21.3022848,18.5 21.75,18.9477153 21.75,19.5 L21.75,25.5 L21.75,25.5 Z M26,25.5 C26,26.0522847 25.5522847,26.5 25,26.5 C24.4477153,26.5 24,26.0522847 24,25.5 L24,16.5 C24,15.9477152 24.4477153,15.5 25,15.5 C25.5522847,15.5 26,15.9477152 26,16.5 L26,25.5 L26,25.5 Z M13.25,25.5 C13.25,26.0522847 12.8022848,26.5 12.25,26.5 C11.6977153,26.5 11.25,26.0522847 11.25,25.5 L11.25,8.50000001 C11.25,7.94771526 11.6977153,7.50000001 12.25,7.50000001 C12.8022848,7.50000001 13.25,7.94771526 13.25,8.50000001 L13.25,25.5 L13.25,25.5 Z" id="icon_lastyear_electricity"></path>
                    </g>
                </g>
            </g>
        </g>
    </g>
</svg>