<?xml version="1.0" encoding="UTF-8"?>
<svg width="88px" height="88px" viewBox="0 0 88 88" version="1.1" xmlns="http://www.w3.org/2000/svg" xmlns:xlink="http://www.w3.org/1999/xlink">
    <!-- Generator: Sketch 47.1 (45422) - http://www.bohemiancoding.com/sketch -->
    <title>icon_scdfd</title>
    <desc>Created with Sketch.</desc>
    <defs></defs>
    <g id="Page-1" stroke="none" stroke-width="1" fill="none" fill-rule="evenodd">
        <g id="首页" transform="translate(-237.000000, -590.000000)">
            <g id="Group-6-Copy" transform="translate(188.000000, 570.000000)">
                <g id="icon_scdfd" transform="translate(49.000000, 20.000000)">
                    <rect id="Rectangle-6" fill="#0089F0" x="0" y="0" width="88" height="88" rx="18"></rect>
                    <g id="电费清单" transform="translate(21.000000, 16.000000)" fill-rule="nonzero" fill="#FFFFFF">
                        <path d="M29.5033042,9.89460609 L13.1216452,9.89460609 L13.1216452,3.3184593 L16.4187943,3.3184593 C16.4187943,2.40647927 16.7328864,1.6348342 17.3610052,1.00339259 C17.9889276,0.37227978 18.756592,0.0566247339 19.663802,0.0566247339 L22.9608857,0.0566247339 C23.8681611,0.0566247339 24.6358908,0.372345541 25.2640096,1.00339259 C25.8919321,1.63489996 26.2058933,2.40647927 26.2058933,3.3184593 L29.5030425,3.3184593 L29.5030425,9.89460609 L29.5033042,9.89460609 Z M21.3388725,6.94836081 C21.8968587,6.94836081 22.3765344,6.74667039 22.7781614,6.34342106 C23.1793305,5.93984294 23.3798496,5.45767985 23.3798496,4.89666877 C23.3798496,4.30040954 23.1793305,3.80923714 22.7781614,3.42341461 C22.3765344,3.03759207 21.8968587,2.84464793 21.3388725,2.84464793 C20.7456238,2.84464793 20.2569852,3.03759207 19.8731531,3.42341461 C19.4893209,3.80923714 19.2973721,4.30040954 19.2973721,4.89666877 C19.2973721,5.45767985 19.4893209,5.93984294 19.8731531,6.34342106 C20.2569852,6.74667039 20.7455584,6.94836081 21.3388725,6.94836081 L21.3388725,6.94836081 Z" id="Shape"></path>
                        <path d="M19.4806197,43.5644119 C19.4632828,43.8097022 19.4547125,44.072748 19.4547125,44.3535495 C19.4547125,45.9318247 19.6814005,47.4309232 20.134842,48.8515024 C20.5886105,50.2720816 21.2340007,51.5783017 22.0716014,52.7710174 L6.78870862,52.7710174 C6.12578524,52.7710174 5.40182293,52.5780732 4.61675627,52.1922507 C3.8316896,51.8064282 3.09902613,51.2976975 2.41843876,50.6666504 C1.73817849,50.0352088 1.17109867,49.3161729 0.717460978,48.5096085 C0.263888711,47.7029783 0.0372007111,46.8611658 0.0372007111,45.9841709 L0.0372007111,13.4192235 C0.0372007111,12.6827608 0.2117472,11.9197963 0.560578489,11.1306586 C0.909409778,10.341521 1.36304747,9.61380462 1.92142613,8.94744367 C2.47954311,8.28108272 3.12499876,7.72881791 3.85772764,7.29032044 C4.59071822,6.85182297 5.35812089,6.63270576 6.16085156,6.63270576 L9.87657209,6.63270576 L9.87657209,13.2088526 L32.7483118,13.2088526 L32.7483118,6.63270576 L35.9934503,6.63270576 C36.7959193,6.63270576 37.5895563,6.80815736 38.3746229,7.1587975 C39.1596896,7.50943765 39.866315,7.9831175 40.4941721,8.57937673 C41.1223563,9.1755702 41.6370329,9.89460609 42.0382674,10.7360898 C42.4395019,11.5779024 42.6400864,12.4723899 42.6400864,13.4192235 L42.6400864,32.0427397 C41.419046,31.2361753 40.1106016,30.6051282 38.7147531,30.1490724 C37.3191662,29.6930824 35.8361753,29.4650217 34.266042,29.4650217 L33.8998084,29.4650217 C34.5277308,29.2195341 35.0424075,28.816219 35.443642,28.2552079 C35.8448764,27.6939338 36.045461,27.0627552 36.045461,26.3612119 C36.045461,25.4492976 35.7226023,24.677521 35.0774084,24.046474 C34.4318873,23.4149666 33.6555218,23.0993116 32.748181,23.0993116 L9.87657209,23.0993116 C8.96962382,23.0993116 8.19325831,23.4150324 7.54773724,24.046474 C6.90221618,24.6775868 6.57942293,25.4492976 6.57942293,26.3612119 C6.57942293,27.2730604 6.9022816,28.0534517 7.54773724,28.7024517 C8.19325831,29.351057 8.96962382,29.6754583 9.87657209,29.6754583 L31.8063627,29.6754583 C29.7128516,30.0263615 27.8112892,30.7715705 26.1013486,31.9113483 C24.3916697,33.0513891 22.978746,34.4981414 21.8622503,36.2516051 L9.87657209,36.2516051 C8.96962382,36.2516051 8.19325831,36.5674575 7.54773724,37.1987676 C6.90221618,37.8298804 6.57942293,38.6015912 6.57942293,39.5135055 C6.57942293,40.425354 6.9022816,41.2056796 7.54773724,41.8547452 C8.19325831,42.5033506 8.96962382,42.8277519 9.87657209,42.8277519 L19.5069849,42.8276204 C19.5069849,43.0732395 19.4979566,43.3188586 19.4806197,43.5644119 Z" id="Shape"></path>
                        <path d="M34.4753931,32.8318773 C36.0455264,32.8318773 37.5285173,33.1388518 38.9241042,33.7525378 C40.3199527,34.3664869 41.5409931,35.1992901 42.5877486,36.2514736 C43.6345042,37.3036571 44.4632729,38.5312922 45.0737931,39.9341158 C45.6845749,41.3372025 45.9897042,42.8276204 45.9897042,44.4058956 C45.9897042,46.019419 45.6845749,47.5275925 45.0737931,48.9304161 C44.4632729,50.3335686 43.6345042,51.5608749 42.5877486,52.6130583 C41.5409931,53.6652418 40.3199527,54.4895618 38.9241042,55.0858868 C37.5285173,55.6820145 36.0455264,55.9800455 34.4753931,55.9800455 C32.8705205,55.9800455 31.3701273,55.6822118 29.9745404,55.0858868 C28.5786919,54.4896934 27.3576516,53.6652418 26.310896,52.6130583 C25.2641404,51.5608749 24.4353717,50.3335686 23.8248516,48.9304161 C23.2140697,47.5275925 22.9090059,46.019419 22.9090059,44.4058956 C22.9090059,42.8276204 23.2140697,41.3372025 23.8248516,39.9341158 C24.4353717,38.5312922 25.2641404,37.3036571 26.310896,36.2514736 C27.3576516,35.1992901 28.5786919,34.3664869 29.9745404,33.7525378 C31.3701273,33.1388518 32.8704551,32.8318773 34.4753931,32.8318773 L34.4753931,32.8318773 Z M34.8433276,40.4762534 L34.8433276,36.3368978 L30.692026,36.3368978 L30.5916683,44.581676 L34.8433276,44.581676 L34.8433276,53.2640969 L38.9611986,40.4762534 L34.8433276,40.4762534 L34.8433276,40.4762534 Z" id="Shape"></path>
                    </g>
                </g>
            </g>
        </g>
    </g>
</svg>