<?xml version="1.0" encoding="UTF-8"?>
<svg width="40px" height="36px" viewBox="0 0 40 36" version="1.1" xmlns="http://www.w3.org/2000/svg" xmlns:xlink="http://www.w3.org/1999/xlink">
    <!-- Generator: Sketch 47.1 (45422) - http://www.bohemiancoding.com/sketch -->
    <title>icon_custom service</title>
    <desc>Created with Sketch.</desc>
    <defs></defs>
    <g id="Page-1" stroke="none" stroke-width="1" fill="none" fill-rule="evenodd">
        <g id="我的_申报记录_电量申报" transform="translate(-30.000000, -721.000000)" fill-rule="nonzero" fill="#888888">
            <g id="表单/选择/单行列表" transform="translate(0.000000, 695.000000)">
                <path d="M50.0002492,30.114626 C43.3722938,30.114626 38.0001404,35.6392519 38.0001404,42.4554351 C38.0001404,49.2704733 43.3722938,54.7961527 50.0002492,54.7961527 C56.6271357,54.7961527 62.0001798,49.2704275 62.0001798,42.4554351 C62.0001353,35.6392519 56.6271357,30.114626 50.0002492,30.114626 L50.0002492,30.114626 Z M45.0001556,38.3418168 C46.1046664,38.3418168 47.0002108,39.2617405 47.0002108,40.398626 C47.0002108,41.534458 46.1046664,42.4554809 45.0001556,42.4554809 C43.8956894,42.4554809 43.0001449,41.534458 43.0001449,40.398626 C43.0001894,39.2616947 43.8956894,38.3418168 45.0001556,38.3418168 Z M55.0001646,42.4554351 C53.8956093,42.4554351 53.0001539,41.5344122 53.0001539,40.3985802 C53.0001539,39.2616947 53.8955648,38.341771 55.0001646,38.341771 C56.1047645,38.341771 57.0001308,39.2616947 57.0001308,40.3985802 C57.0001308,41.534458 56.1047199,42.4554351 55.0001646,42.4554351 Z M68.000212,38.3418168 L66.0002013,38.3418168 C66.0002013,38.3418168 61.9787131,26 50.0001601,26 C37.9756897,26 34.0000744,38.3418168 34.0000744,38.3418168 L32.0001082,38.3418168 C29.9610388,38.3418168 30.000053,40.398626 30.000053,40.398626 L30.000053,46.5690534 C30.000053,48.564626 32.0001082,48.6258626 32.0001082,48.6258626 L34.0000744,48.6258626 C34.0000744,48.6258626 33.9835068,61.9961069 47.0001218,61.9961069 L51.0000987,61.9961069 C52.3332164,61.927771 53.0001539,61.9961069 53.0001539,59.9381527 C53.0001539,59.0384275 52.9961901,57.8813435 51.0000987,57.8813435 L49.0000879,57.8813435 C46.9903682,57.8813435 47.0001218,58.9539695 47.0001218,59.9381527 C43.0586661,59.9381527 36.0000406,56.8149008 36.0000406,48.6258168 L36.0000406,39.3702443 C36.0000406,39.3702443 39.3399387,28.0577252 50.0001156,28.0577252 C60.7129794,28.0577252 64.0000569,39.3702443 64.0000569,39.3702443 L64.0000569,48.6258168 L68.0001229,48.6258168 C69.9356444,48.6258168 70,46.5690076 70,46.5690076 L70,40.3985802 C70.0001336,38.269542 68.000212,38.3418168 68.000212,38.3418168 Z" id="icon_custom-service"></path>
            </g>
        </g>
    </g>
</svg>