<?xml version="1.0" encoding="UTF-8"?>
<svg width="88px" height="88px" viewBox="0 0 88 88" version="1.1" xmlns="http://www.w3.org/2000/svg" xmlns:xlink="http://www.w3.org/1999/xlink">
    <!-- Generator: Sketch 47.1 (45422) - http://www.bohemiancoding.com/sketch -->
    <title>icon_hhjc</title>
    <desc>Created with Sketch.</desc>
    <defs></defs>
    <g id="Page-1" stroke="none" stroke-width="1" fill="none" fill-rule="evenodd">
        <g id="首页" transform="translate(-425.000000, -590.000000)">
            <g id="Group-6-Copy-3" transform="translate(376.000000, 570.000000)">
                <g id="icon_hhjc" transform="translate(49.000000, 20.000000)">
                    <rect id="Rectangle-6" fill="#0089F0" x="0" y="0" width="88" height="88" rx="18"></rect>
                    <g id="在线监测" transform="translate(16.000000, 17.000000)" fill-rule="nonzero" fill="#FFFFFF">
                        <path d="M43.058613,49.6536279 L12.9183356,49.6536279 C11.7325638,49.6536279 10.7655302,51.8116186 10.7655302,51.8116186 L10.7655302,53.9696721 L45.2115436,53.9696721 L45.2115436,51.8116186 C45.2115436,50.6229907 44.2443848,49.6535651 43.058613,49.6535651 L43.058613,49.6536279 Z M49.5173423,0.0182093023 L6.45973154,0.0182093023 C2.89408501,0.0182093023 0.00112751678,2.91913953 0.00112751678,6.49236977 L0.00112751678,36.7052442 C0.00112751678,40.2794791 2.89408501,43.1794047 6.45973154,43.1794047 L21.5298076,43.1794047 L21.5298076,45.3374581 C21.5298076,46.5270907 22.4969664,47.4955116 23.6827383,47.4955116 L32.2942103,47.4955116 C33.4799821,47.4955116 34.4471409,46.3827349 34.4471409,45.3373953 L34.4471409,43.1794047 L49.5171544,43.1794047 C53.0828635,43.1794047 55.975821,40.2794791 55.975821,36.7052442 L55.975821,6.49236977 C55.9759463,2.91913953 53.0829888,0.0182093023 49.5173423,0.0182093023 Z M6.45973154,34.5471907 C5.27395973,34.5471907 4.30686353,33.5788326 4.30686353,32.3891372 L4.30686353,6.49236977 C4.30686353,5.30374186 5.27402237,4.33431628 6.45979418,4.33431628 L49.5173423,4.33431628 C50.7031141,4.33431628 51.6701477,5.30380465 51.6701477,6.49236977 L51.6701477,32.3891372 C51.6701477,33.5787698 50.7029888,34.5471279 49.5173423,34.5471279 L6.45973154,34.5471279 L6.45973154,34.5471907 Z M49.5152125,41.1014093 C48.2852796,41.1014093 47.286613,40.1003372 47.286613,38.8632349 C47.286613,37.6293349 48.2853423,36.6251233 49.5152125,36.6251233 C50.7492796,36.6251233 51.7480089,37.6293349 51.7480089,38.8632349 C51.7479463,40.1004 50.7492796,41.1014093 49.5152125,41.1014093 Z" id="Shape"></path>
                        <path d="M43.689396,9.7915814 L36.6000089,16.898107 L31.6635526,11.9497605 C31.1904966,11.473493 30.5219418,11.2501465 29.8554541,11.3364837 C29.1905432,11.4260652 28.6052341,11.8210802 28.2722953,12.4049302 L21.8725727,23.6304 L19.2235347,16.9897186 C18.9544523,16.3163966 18.3660066,15.8235545 17.6571633,15.6778326 C16.9360537,15.5312791 16.2128143,15.7525535 15.7019866,16.2658047 L9.24331991,22.7399651 C8.40231767,23.582993 8.40231767,24.9486279 9.24331991,25.791593 C10.0843221,26.6346209 11.4466756,26.6346209 12.2876152,25.791593 L16.4378166,21.6313953 L19.5305324,29.383786 C19.8374676,30.1519674 20.5565101,30.6777767 21.3805996,30.7346651 C21.4310872,30.7378047 21.4814497,30.7399395 21.5299329,30.7399395 C22.3025046,30.7400527 23.0158536,30.3250271 23.3989799,29.6525302 L30.6123937,16.9992 L35.0778613,21.475486 C35.9188635,22.3184512 37.2812796,22.3184512 38.1222192,21.475486 L46.7336913,12.8431465 C47.5746935,12.0001814 47.5746935,10.6344837 46.7336913,9.7915186 C45.8927517,8.94861628 44.5303356,8.94861628 43.689396,9.79164419 L43.689396,9.7915814 Z" id="Shape"></path>
                    </g>
                </g>
            </g>
        </g>
    </g>
</svg>