<?xml version="1.0" encoding="UTF-8"?>
<svg width="32px" height="36px" viewBox="0 0 32 36" version="1.1" xmlns="http://www.w3.org/2000/svg" xmlns:xlink="http://www.w3.org/1999/xlink">
    <!-- Generator: Sketch 47.1 (45422) - http://www.bohemiancoding.com/sketch -->
    <title>icon_year_electricity</title>
    <desc>Created with Sketch.</desc>
    <defs></defs>
    <g id="Page-1" stroke="none" stroke-width="1" fill="none" fill-rule="evenodd">
        <g id="我的企业" transform="translate(-33.000000, -1477.000000)" fill-rule="nonzero" fill="#888888">
            <g id="表单/选择/多行列表-" transform="translate(0.000000, 1275.000000)">
                <g id="列表三" transform="translate(0.000000, 176.000000)">
                    <g id="电流" transform="translate(33.000000, 26.000000)">
                        <path d="M25.9805068,32.5 L25.9805068,33.667 C25.9805068,34.9554803 24.9380232,36 23.6520546,36 L8.3479454,36 C7.06197675,36 6.01949319,34.9554803 6.01949319,33.667 L6.01949319,32.5 L4.41462768,32.5 C3.25206749,32.5 2.13712273,32.0372727 1.31506853,31.213613 C0.493014328,30.3899532 0.0311890877,29.2728308 0.0311890877,28.108 L0.0311890877,4.392 C0.0311890877,1.96636538 1.9937214,3.90071797e-16 4.41462768,0 L27.5853723,0 C28.7479325,-9.63252283e-16 29.8628773,0.462727243 30.6849315,1.28638702 C31.5069857,2.11004679 31.9688109,3.22716918 31.9688109,4.392 L31.9688109,28.108 C31.9688109,30.5336346 30.0062786,32.5 27.5853723,32.5 L25.9805068,32.5 Z M4.41462768,2.99999999 C3.6473459,2.99999999 3.02534112,3.62321962 3.02534112,4.392 L3.02534112,28.108 C3.02534112,28.8767804 3.6473459,29.5 4.41462768,29.5 L27.5853723,29.5 C28.3526541,29.5 28.9746589,28.8767804 28.9746589,28.108 L28.9746589,4.392 C28.9746589,3.62321962 28.3526541,2.99999999 27.5853723,2.99999999 L4.41462768,2.99999999 Z M12.5547291,16.9305 L10.3560234,20.07 L5.95362182,20.07 L5.95362182,18.07 L9.31805067,18.07 L12.8212086,13.07 L16.4206784,20.0995 L19.1134191,15.3625 L21.0346667,19.2235 L27.0444288,19.2235 L27.0444288,21.2235 L19.7995789,21.2235 L18.9961481,19.6095 L16.3288577,24.3015 L12.5547291,16.9315 L12.5547291,16.9305 Z M20.1289357,7 L18.6213801,9.30899999 L21.4892787,9.30899999 L16.826386,14.5 L18.5245692,10.8965 L16.4990253,10.8965 L17.9262378,7 L20.1289357,7 Z" id="icon_year_electricity"></path>
                    </g>
                </g>
            </g>
        </g>
    </g>
</svg>