<?xml version="1.0" encoding="UTF-8"?>
<svg width="88px" height="88px" viewBox="0 0 88 88" version="1.1" xmlns="http://www.w3.org/2000/svg" xmlns:xlink="http://www.w3.org/1999/xlink">
    <!-- Generator: Sketch 47.1 (45422) - http://www.bohemiancoding.com/sketch -->
    <title>icon_sbdl</title>
    <desc>Created with Sketch.</desc>
    <defs></defs>
    <g id="Page-1" stroke="none" stroke-width="1" fill="none" fill-rule="evenodd">
        <g id="首页" transform="translate(-49.000000, -590.000000)">
            <g id="Group-6" transform="translate(0.000000, 570.000000)">
                <g id="icon_sbdl" transform="translate(49.000000, 20.000000)">
                    <rect id="Rectangle-6" fill="#0089F0" x="0" y="0" width="88" height="88" rx="18"></rect>
                    <g id="电量申报" transform="translate(19.000000, 16.000000)" fill-rule="nonzero" fill="#FFFFFF">
                        <path d="M6.03537478,28.0099818 C6.03537478,20.1092139 10.9597729,13.3301437 17.9199096,10.5383998 L21.4713678,3.45390396 C9.36458502,5.1620117 0.0235961454,15.5220443 0.0235961454,28.0099818 C0.0235961454,39.3715571 7.75568276,48.9727831 18.2680291,51.8983025 L18.9511175,45.8618068 C11.4508601,43.3486215 6.03537472,36.2956571 6.03537478,28.0099818 L6.03537478,28.0099818 Z M49.9764039,28.0099818 C49.9764039,16.6506455 42.2476988,7.05128523 31.738922,4.12352697 L31.0404285,10.1555448 C38.5450068,12.6663046 43.9646252,19.7213214 43.9646252,28.0099818 C43.9646252,35.8646654 39.0975268,42.6105249 32.2016411,45.4323077 L28.55174,52.5627014 C40.6472507,50.8448916 49.9764039,40.4898966 49.9764039,28.0099818 Z" id="Shape"></path>
                        <path d="M39.2961034,25.0040481 C39.5328172,24.5415249 39.5104609,24.0334772 39.2371128,23.5912909 C38.9639526,23.148918 38.4788773,22.9726033 37.9562283,22.9726032 L26.5299037,22.9726032 L28.9896605,1.73516131 C29.0734497,1.01516264 28.6240692,0.269229844 27.9240727,0.0628762969 C27.7827851,0.0211944914 27.636172,1.66989128e-05 27.4887824,0 C26.93382,0 26.4092924,0.313635055 26.1509738,0.828772766 L10.6982605,31.6653884 C10.4664313,32.1279115 10.4919814,32.7438005 10.7658931,33.1833747 C11.0399926,33.6227624 11.5231893,33.980616 12.0437717,33.980616 L23.3194261,33.980616 L21.0078972,54.4187643 C20.9271139,55.1359643 21.3744278,55.7391661 22.070667,55.9458928 C22.2136346,55.9884323 22.3584808,56 22.5014485,56 C23.0673233,55.9998637 23.5851955,55.684196 23.8415115,55.1831681 L39.2961034,25.0040481 Z" id="Shape"></path>
                    </g>
                </g>
            </g>
        </g>
    </g>
</svg>