<?xml version="1.0" encoding="UTF-8"?>
<svg width="34px" height="36px" viewBox="0 0 34 36" version="1.1" xmlns="http://www.w3.org/2000/svg" xmlns:xlink="http://www.w3.org/1999/xlink">
    <!-- Generator: Sketch 47.1 (45422) - http://www.bohemiancoding.com/sketch -->
    <title>icon_usercode</title>
    <desc>Created with Sketch.</desc>
    <defs></defs>
    <g id="Page-1" stroke="none" stroke-width="1" fill="none" fill-rule="evenodd">
        <g id="我的_电费单_上传电费单" transform="translate(-33.000000, -390.000000)" fill-rule="nonzero" fill="#888888">
            <g id="表单/选择/多行列表-" transform="translate(0.000000, 276.000000)">
                <g id="列表二" transform="translate(0.000000, 88.000000)">
                    <path d="M64.6061538,26 L35.3630769,26 C34.0633846,26 33,27.0532571 33,28.3405714 L33,59.6262095 C33,60.9135238 34.0633846,61.966781 35.3630769,61.966781 L64.5864615,61.966781 C65.8861538,61.966781 66.9495385,60.9135238 66.9495385,59.6262095 L66.9495385,28.3405714 C66.9692308,27.0532571 65.9058462,26 64.6061538,26 Z M40.9556923,57.8902857 C40.9556923,58.768 40.2270769,59.4896762 39.3409231,59.4896762 L38.0018462,59.4896762 C37.1156923,59.4896762 36.3870769,58.768 36.3870769,57.8902857 L36.3870769,56.5639619 C36.3870769,55.6862476 37.1156923,54.9645714 38.0018462,54.9645714 L39.3409231,54.9645714 C40.2270769,54.9645714 40.9556923,55.6862476 40.9556923,56.5639619 L40.9556923,57.8902857 Z M48.4978462,57.8902857 C48.4978462,58.768 47.7692308,59.4896762 46.8830769,59.4896762 L45.544,59.4896762 C44.6578462,59.4896762 43.9292308,58.768 43.9292308,57.8902857 L43.9292308,56.5639619 C43.9292308,55.6862476 44.6578462,54.9645714 45.544,54.9645714 L46.8830769,54.9645714 C47.7692308,54.9645714 48.4978462,55.6862476 48.4978462,56.5639619 L48.4978462,57.8902857 Z M56.0203077,57.8902857 C56.0203077,58.768 55.2916923,59.4896762 54.4055385,59.4896762 L53.0664615,59.4896762 C52.1803077,59.4896762 51.4516923,58.768 51.4516923,57.8902857 L51.4516923,56.5639619 C51.4516923,55.6862476 52.1803077,54.9645714 53.0664615,54.9645714 L54.4055385,54.9645714 C55.2916923,54.9645714 56.0203077,55.6862476 56.0203077,56.5639619 L56.0203077,57.8902857 Z M59.3876923,38.9121524 L47.08,51.5512381 C46.8633846,51.882819 46.5089231,52.0583619 46.1150769,52.0583619 C45.4849231,52.0583619 44.9729231,51.5512381 44.9729231,50.9465905 L44.9729231,50.8685714 L44.9926154,50.8295619 C45.0123077,50.654019 45.0713846,50.497981 45.1698462,50.3419429 L47.8086154,43.0081524 L42.6886154,43.0081524 L42.6886154,42.9886476 C42.6295385,43.0081524 42.5704615,43.0081524 42.5113846,43.0081524 C42.0190769,43.0081524 41.6252308,42.6180571 41.6252308,42.1499429 C41.6252308,41.8768762 41.7630769,41.6233143 41.9796923,41.4672762 L52.5347692,29.5108571 C52.7513846,29.1792762 53.1058462,29.0037333 53.4996923,29.0037333 C54.1298462,29.0037333 54.6418462,29.5108571 54.6418462,30.1155048 L54.6418462,30.1935238 L54.6221538,30.2715429 C54.6221538,30.3105524 54.6024615,30.3690667 54.6024615,30.4080762 L53.0664615,37.3712762 L58.6984615,37.3712762 L58.6984615,37.390781 C58.7575385,37.3712762 58.8166154,37.3712762 58.8756923,37.3712762 C59.368,37.3712762 59.7618462,37.7613714 59.7618462,38.2294857 C59.7421538,38.5025524 59.6043077,38.7561143 59.3876923,38.9121524 Z M63.5624615,57.8902857 C63.5624615,58.768 62.8338462,59.4896762 61.9476923,59.4896762 L60.6086154,59.4896762 C59.7224615,59.4896762 58.9938462,58.768 58.9938462,57.8902857 L58.9938462,56.5639619 C58.9938462,55.6862476 59.7224615,54.9645714 60.6086154,54.9645714 L61.9476923,54.9645714 C62.8338462,54.9645714 63.5624615,55.6862476 63.5624615,56.5639619 L63.5624615,57.8902857 Z" id="icon_usercode"></path>
                </g>
            </g>
        </g>
    </g>
</svg>