<?xml version="1.0" encoding="UTF-8"?>
<svg width="32px" height="36px" viewBox="0 0 32 36" version="1.1" xmlns="http://www.w3.org/2000/svg" xmlns:xlink="http://www.w3.org/1999/xlink">
    <!-- Generator: Sketch 47.1 (45422) - http://www.bohemiancoding.com/sketch -->
    <title>icon_adress</title>
    <desc>Created with Sketch.</desc>
    <defs></defs>
    <g id="Page-1" stroke="none" stroke-width="1" fill="none" fill-rule="evenodd">
        <g id="我的企业" transform="translate(-33.000000, -1731.000000)" fill-rule="nonzero" fill="#888888">
            <g id="表单/选择/多行列表-" transform="translate(0.000000, 1705.000000)">
                <g id="列表一" transform="translate(1.000000, 0.000000)">
                    <g id="地址" transform="translate(32.000000, 26.000000)">
                        <path d="M15.7022333,0.0120535714 C8.65111663,0.0120535714 4.14888337,5.76964286 4.14888337,12.9053571 C4.14888337,20.0410714 13.9831266,30.2946429 15.7022333,30.2946429 C17.42134,30.2946429 27.2555831,20.0410714 27.2555831,12.9053571 C27.2555831,5.76964286 22.7533499,0.0120535714 15.7022333,0.0120535714 Z M15.7022333,16.8026786 C12.9191067,16.8026786 10.6679901,14.5245536 10.6679901,11.7080357 C10.6679901,8.89151786 12.9191067,6.61339286 15.7022333,6.61339286 C18.4853598,6.61339286 20.7404467,8.89151786 20.7404467,11.7080357 C20.7404467,14.5205357 18.48933,16.8026786 15.7022333,16.8026786 Z M6.81687345,26.0959821 C2.60843672,26.9959821 0.00397022333,28.434375 0.00397022333,30.5919643 C0.00397022333,33.9508929 7.1146402,35.9879464 16,35.9879464 C24.88933,35.9879464 31.9960298,33.9508929 31.9960298,30.5919643 C31.9960298,28.3741071 29.2129032,26.8754464 24.7066998,25.9754464 C24.0555831,25.8549107 23.4640199,26.2767857 23.3449132,26.9357143 C23.2258065,27.5946429 23.6426799,28.1933036 24.2937965,28.3138393 C27.6724566,28.9727679 29.6853598,30.0535714 29.6853598,30.5919643 C29.6853598,30.7125 29.5066998,30.8933036 29.0342432,31.2508929 C28.3831266,31.66875 27.4342432,32.090625 26.1915633,32.4482143 C23.5235732,33.2276786 19.91067,33.6455357 16.0595533,33.6455357 C12.2084367,33.6455357 8.53598015,33.2276786 5.92754342,32.4482143 C4.68486352,32.0866071 3.73598015,31.66875 3.08486352,31.2508929 C2.5528536,30.8892857 2.37419355,30.7125 2.37419355,30.5919643 C2.37419355,30.1138393 4.21240695,29.0933036 7.29330025,28.434375 C7.94441687,28.3138393 8.36129032,27.6549107 8.18263027,26.9959821 C8.1191067,26.3330357 7.46799007,25.9151786 6.81687345,26.0959821 L6.81687345,26.0959821 Z" id="icon_adress"></path>
                    </g>
                </g>
            </g>
        </g>
    </g>
</svg>