<?xml version="1.0" encoding="UTF-8"?>
<svg width="36px" height="36px" viewBox="0 0 36 36" version="1.1" xmlns="http://www.w3.org/2000/svg" xmlns:xlink="http://www.w3.org/1999/xlink">
    <!-- Generator: Sketch 47.1 (45422) - http://www.bohemiancoding.com/sketch -->
    <title>icon_month</title>
    <desc>Created with Sketch.</desc>
    <defs></defs>
    <g id="Page-1" stroke="none" stroke-width="1" fill="none" fill-rule="evenodd">
        <g id="我的_电费单_上传电费单" transform="translate(-32.000000, -302.000000)" fill-rule="nonzero" fill="#888888">
            <g id="表单/选择/多行列表-" transform="translate(0.000000, 276.000000)">
                <g id="列表一">
                    <path d="M47.7499383,52.9989302 L52.2500617,52.9989302 L52.2500617,48.4990125 L47.7499383,48.4990125 L47.7499383,52.9989302 L47.7499383,52.9989302 Z M41.0000411,46.24928 L45.4999588,46.24928 L45.4999588,41.74928 L41.0000411,41.74928 L41.0000411,46.24928 L41.0000411,46.24928 Z M41.0000411,52.9989302 L45.4999588,52.9989302 L45.4999588,48.4990125 L41.0000411,48.4990125 L41.0000411,52.9989302 L41.0000411,52.9989302 Z M63.5000822,26 L58.9999588,26 L58.9999588,28.2499794 C58.9999588,29.4935634 57.9924114,30.4999177 56.7500205,30.4999177 C55.5076297,30.4999177 54.5000411,29.4935223 54.5000411,28.2499794 L54.5000411,26 L45.4999588,26 L45.4999588,28.2499794 C45.4999588,29.4935634 44.4936045,30.4999177 43.2500206,30.4999177 C42.007424,30.4999177 40.9998766,29.4935223 40.9998766,28.2499794 L40.9998766,26 L36.4999177,26 C34.0149303,26 32,28.0146834 32,30.499712 L32,57.4986423 C32,59.9838766 34.0149303,61.99856 36.4999177,61.99856 L63.5000823,61.99856 C65.9851108,61.99856 68,59.9838766 68,57.4986423 L68,30.499712 C68,28.0146834 65.9851108,26 63.5000822,26 L63.5000822,26 Z M63.5000822,55.2489097 C63.5000822,56.4925348 62.4925348,57.498848 61.2501439,57.498848 L38.7500617,57.498848 C37.5074651,57.498848 36.4999177,56.4924937 36.4999177,55.2489097 L36.4999177,39.4993417 C36.4999177,38.2557577 37.5074651,37.2496091 38.7500617,37.2496091 L61.2501029,37.2496091 C62.4924937,37.2496091 63.5000412,38.2557988 63.5000412,39.4993417 L63.5000411,55.2489097 L63.5000822,55.2489097 Z M54.5000411,46.24928 L58.9999588,46.24928 L58.9999588,41.74928 L54.5000411,41.74928 L54.5000411,46.24928 L54.5000411,46.24928 Z M47.7499383,46.24928 L52.2500617,46.24928 L52.2500617,41.74928 L47.7499383,41.74928 L47.7499383,46.24928 L47.7499383,46.24928 Z M54.5000411,52.9989302 L58.9999588,52.9989302 L58.9999588,48.4990125 L54.5000411,48.4990125 L54.5000411,52.9989302 L54.5000411,52.9989302 Z" id="icon_month"></path>
                </g>
            </g>
        </g>
    </g>
</svg>