<?xml version="1.0" encoding="UTF-8"?>
<svg width="88px" height="88px" viewBox="0 0 88 88" version="1.1" xmlns="http://www.w3.org/2000/svg" xmlns:xlink="http://www.w3.org/1999/xlink">
    <!-- Generator: Sketch 47.1 (45422) - http://www.bohemiancoding.com/sketch -->
    <title>icon_yhlt</title>
    <desc>Created with Sketch.</desc>
    <defs></defs>
    <g id="Page-1" stroke="none" stroke-width="1" fill="none" fill-rule="evenodd">
        <g id="首页" transform="translate(-613.000000, -590.000000)">
            <g id="Group-6-Copy-2" transform="translate(564.000000, 570.000000)">
                <g id="icon_yhlt" transform="translate(49.000000, 20.000000)">
                    <rect id="Rectangle-6" fill="#0089F0" x="0" y="0" width="88" height="88" rx="18"></rect>
                    <g id="论坛" transform="translate(16.000000, 21.000000)" fill-rule="nonzero" fill="#FFFFFF">
                        <path d="M47.6875931,9.88751595 L42.6563333,9.88751595 L42.6563333,21.3602224 C42.6563333,27.6856172 37.5037764,32.8329289 31.1719359,32.832929 L17.8610818,32.832929 L16.8359079,33.686389 C17.8991443,36.9816781 20.961869,39.3887612 24.6094231,39.3887612 L39.1090764,39.3887612 L46.6364974,45.5652294 C47.7073901,46.4528891 49.328112,45.6901179 49.328112,44.3056355 L49.328112,39.223882 C53.0675412,38.4619851 56,35.1520546 56,31.1939709 L56,18.0823063 C56.0001094,13.5639174 52.2105864,9.88751595 47.6875931,9.88751595 L47.6875931,9.88751595 Z" id="Shape"></path>
                        <path d="M31.1719359,0.0537675534 L8.20314102,0.0537675534 C3.68014779,0.0537675534 0,3.73016901 0,8.24855791 L0,21.3602224 C0,25.3183062 2.82308365,28.6282366 6.5625128,29.3901336 L6.5625128,34.471887 C6.5625128,35.8647829 8.18990659,36.6137867 9.25412748,35.7314809 L16.6721732,29.5550128 L31.1719359,29.5550128 C35.6949291,29.5550128 39.3750769,25.8786113 39.3750769,21.3602224 L39.3750769,8.24855791 C39.3750769,3.73016901 35.6949291,0.0537675534 31.1719359,0.0537675534 Z M31.1719359,19.7212644 L8.20314102,19.7212644 C7.29631115,19.7212644 6.5625128,18.9882131 6.5625128,18.0823063 C6.5625128,17.1763995 7.29631109,16.4433482 8.20314102,16.4433483 L31.1719359,16.4433483 C32.0787657,16.4433483 32.8125641,17.1763996 32.8125641,18.0823063 C32.8125641,18.988213 32.0787658,19.7212644 31.1719359,19.7212644 Z M31.1719359,13.1654321 L8.20314102,13.1654321 C7.29631115,13.1654321 6.5625128,12.4323808 6.5625128,11.526474 C6.5625128,10.6205673 7.29631109,9.88751595 8.20314102,9.88751595 L31.1719359,9.88751595 C32.0787657,9.88751595 32.8125641,10.6205672 32.8125641,11.526474 C32.8125641,12.4323808 32.0787658,13.1654321 31.1719359,13.1654321 Z" id="Shape"></path>
                    </g>
                </g>
            </g>
        </g>
    </g>
</svg>