<?xml version="1.0" encoding="UTF-8"?>
<svg width="36px" height="36px" viewBox="0 0 36 36" version="1.1" xmlns="http://www.w3.org/2000/svg" xmlns:xlink="http://www.w3.org/1999/xlink">
    <!-- Generator: Sketch 47.1 (45422) - http://www.bohemiancoding.com/sketch -->
    <title>me_icon_user management</title>
    <desc>Created with Sketch.</desc>
    <defs></defs>
    <g id="Page-1" stroke="none" stroke-width="1" fill="none" fill-rule="evenodd">
        <g id="我的" transform="translate(-30.000000, -699.000000)" fill-rule="nonzero" fill="#FC8B40">
            <g id="表单/输入/单项输入-copy-2" transform="translate(0.000000, 673.000000)">
                <g id="用户管理" transform="translate(30.000000, 26.000000)">
                    <path d="M34.9515902,28.0080794 L31.9240624,28.0080794 L31.9240624,31.0055656 C31.9240624,31.5567982 31.4724989,32.0038809 30.9157416,32.0038809 L28.8991002,32.0038809 C28.342343,32.0038809 27.8907795,31.5567982 27.8907795,31.0055656 L27.8907795,28.0080794 L24.8632517,28.0080794 C24.3064944,28.0080794 23.854931,27.5609967 23.854931,27.0097641 L23.854931,25.0131334 C23.854931,24.4619008 24.3064944,24.0148181 24.8632517,24.0148181 L27.8907795,24.0148181 L27.8907795,21.0173319 C27.8907795,20.4660992 28.342343,20.0190165 28.8991002,20.0190165 L30.9157416,20.0190165 C31.4724989,20.0190165 31.9240624,20.4660992 31.9240624,21.0173319 L31.9240624,24.0148181 L34.9515902,24.0148181 C35.5083474,24.0148181 35.9599109,24.4619008 35.9599109,25.0131334 L35.9599109,27.0097641 C35.9599109,27.5609967 35.5083474,28.0080794 34.9515902,28.0080794 Z M25.8715724,22.0156472 L24.0832784,22.0156472 C24.7170067,21.6498523 25.3096837,21.228172 25.8715724,20.7633076 L25.8715724,22.0156472 Z M17.7665212,21.1976891 C12.0244811,21.1976891 7.37286414,16.4601367 7.37286414,10.6175788 C7.37286414,4.77502095 12.0270468,0.0374685777 17.7665212,0.0374685777 C23.5059955,0.0374685777 28.1601782,4.77502095 28.1601782,10.6175788 C28.1627439,16.4601367 23.5085612,21.1976891 17.7665212,21.1976891 Z M17.7665212,23.7480926 C19.3315991,23.7480926 20.8222717,23.4458037 22.2077506,22.9199735 C21.9922316,23.2375039 21.8331581,23.6007585 21.8331581,24.0122778 L21.8331581,28.0080794 C21.8331581,29.1105447 22.7362851,30.00471 23.8497996,30.00471 L25.866441,30.00471 L25.866441,32.0013407 C25.866441,33.103806 26.7695679,33.9979713 27.8830824,33.9979713 L31.918931,33.9979713 C33.0324454,33.9979713 33.9355724,33.103806 33.9355724,32.0013407 L33.9355724,30.799806 C34.8233051,32.2401235 35.1568463,32.9488512 35.1568463,32.9488512 C35.9522138,34.3332834 35.2569087,35.9971422 33.7097906,35.9971422 L17.7434298,35.9971422 L1.76937194,35.9971422 C0.224819599,35.9971422 -0.362726058,34.4856979 0.322316258,32.9488512 C0.322316258,32.9488512 1.45892205,30.4848159 5.44602227,25.1198236 C6.48,23.7277707 7.80646771,22.0816935 9.20220935,20.4051334 C11.483118,22.4779713 14.4798575,23.7480926 17.7665212,23.7480926 Z" id="me_icon_user-management"></path>
                </g>
            </g>
        </g>
    </g>
</svg>