<?xml version="1.0" encoding="UTF-8"?>
<svg width="36px" height="34px" viewBox="0 0 36 34" version="1.1" xmlns="http://www.w3.org/2000/svg" xmlns:xlink="http://www.w3.org/1999/xlink">
    <!-- Generator: Sketch 47.1 (45422) - http://www.bohemiancoding.com/sketch -->
    <title>me_icon_mypowerate</title>
    <desc>Created with Sketch.</desc>
    <defs></defs>
    <g id="Page-1" stroke="none" stroke-width="1" fill="none" fill-rule="evenodd">
        <g id="我的" transform="translate(-30.000000, -582.000000)" fill-rule="nonzero" fill="#6EC71E">
            <g id="表单/输入/双项输入" transform="translate(0.000000, 346.000000)">
                <g id="输入项二" transform="translate(30.000000, 229.000000)">
                    <g id="电费管理icon" transform="translate(0.000000, 7.000000)">
                        <path d="M3.73504452,4.68658354 C4.21196439,4.10422348 4.68863592,3.56138249 5.16555579,3.05830879 C5.53633342,2.6082085 5.92707792,2.18447081 6.33783894,1.7872943 C6.74835162,1.39011779 7.05957635,1.09878882 7.27141381,0.913406682 C7.56287036,0.675249717 7.8742441,0.463306401 8.20523702,0.278073205 C8.53642862,0.0926910684 8.98016973,0 9.53641068,0 L26.7020493,0 C27.0464528,0 27.4438032,0.0727329487 27.8941006,0.218347787 C28.344398,0.364012273 28.7813345,0.661894657 29.2052577,1.11199494 C29.4171448,1.37691167 29.6953398,1.70775971 30.0397433,2.10493622 C30.3841468,2.50211273 30.7151397,2.88608312 31.0331194,3.25689704 C31.4038971,3.70704697 31.7748734,4.18350984 32.1456013,4.68658354 L3.73504452,4.68658354 L3.73504452,4.68658354 Z M36,16.5623102 C36,17.4096366 35.7217554,18.124455 35.1655144,18.7070633 C34.6092734,19.2896716 33.8145726,19.5807524 32.7814117,19.5807524 L3.41731317,19.5807524 C2.41072515,19.5807524 1.60921963,19.2896716 1.01319397,18.7070633 C0.417168299,18.124455 0.119155465,17.4096366 0.119155465,16.5623102 L0.119155465,10.8825868 C0.119155465,10.0352603 0.384188212,9.30708684 0.913856355,8.69811596 C1.44372317,8.08914507 2.30458291,7.78465963 3.49663425,7.78465963 L32.7416767,7.78465963 C33.9603008,7.78465963 34.8079983,8.08914507 35.2846699,8.69811596 C35.7615897,9.30708684 36,10.0352603 36,10.8825868 L36,16.5623102 L36,16.5623102 Z M21.0197889,13.7025896 C21.0197889,13.3583369 20.9336632,13.1133783 20.7615608,12.9677635 C20.5894583,12.822099 20.3576044,12.749366 20.0661975,12.749366 L16.0529083,12.749366 C15.7615014,12.749366 15.5232402,12.8421067 15.3377769,13.0272903 C15.1522639,13.2126724 15.0595322,13.4378715 15.0595322,13.7025896 C15.086105,14.0467927 15.1854426,14.2983544 15.357545,14.4571754 C15.5298461,14.6159963 15.7615014,14.6955309 16.0529083,14.6955309 L20.0661975,14.6955309 C20.6754351,14.6955309 20.9934147,14.3644843 21.0197889,13.7025896 L21.0197889,13.7025896 Z M35.8806955,30.9400006 C35.8806955,31.7872774 35.5563086,32.5155005 34.9072863,33.1244714 C34.258264,33.7334423 33.430434,34.0247216 32.423846,33.998359 L3.29790936,33.998359 C2.45026152,33.998359 1.68873939,33.7004767 1.0131443,33.1047119 C0.337797547,32.5089471 0,31.6814299 0,30.6223587 L0,25.3002431 C0,24.4263555 0.271440023,23.6915789 0.814469075,23.0958141 C1.3575478,22.5000494 2.22521216,22.202167 3.4172635,22.202167 L32.5827365,22.202167 C33.6952184,22.202167 34.5230981,22.5000494 35.0661768,23.0958141 C35.6092555,23.6915789 35.8806459,24.413199 35.8806459,25.2605254 L35.8806459,30.9400006 L35.8806955,30.9400006 Z M20.9006831,28.1200474 C20.9006831,27.8553292 20.8145574,27.6303784 20.642455,27.4449466 C20.4701539,27.2595645 20.2382999,27.1668237 19.9470917,27.1668237 L15.9338025,27.1668237 C15.6423956,27.1668237 15.4039357,27.2595148 15.2184227,27.4449466 C15.0331581,27.6303287 14.9404264,27.8553292 14.9404264,28.1200474 C14.9404264,28.3849641 15.0331581,28.609915 15.2184227,28.7953467 C15.4039357,28.9807289 15.6423956,29.0734696 15.9338025,29.0734696 L19.9470917,29.0734696 C20.2382999,29.0734696 20.4701539,28.9807785 20.642455,28.7953467 C20.8145574,28.609915 20.9006831,28.3849641 20.9006831,28.1200474 L20.9006831,28.1200474 Z" id="me_icon_mypowerate"></path>
                    </g>
                </g>
            </g>
        </g>
    </g>
</svg>