<?xml version="1.0" encoding="UTF-8"?>
<svg width="36px" height="36px" viewBox="0 0 36 36" version="1.1" xmlns="http://www.w3.org/2000/svg" xmlns:xlink="http://www.w3.org/1999/xlink">
    <!-- Generator: Sketch 47.1 (45422) - http://www.bohemiancoding.com/sketch -->
    <title>me_icon_setting</title>
    <desc>Created with Sketch.</desc>
    <defs></defs>
    <g id="Page-1" stroke="none" stroke-width="1" fill="none" fill-rule="evenodd">
        <g id="我的" transform="translate(-30.000000, -817.000000)" fill-rule="nonzero" fill="#AB7AEE">
            <g id="表单/输入/单项输入-copy-3" transform="translate(0.000000, 791.000000)">
                <g id="设置-(1)" transform="translate(30.000000, 26.000000)">
                    <path d="M34.4646069,14.996264 L33.3405166,14.5927771 C32.3273945,14.2491053 31.5095063,13.4906977 31.0923361,12.5080946 C30.6585478,11.5379281 30.6585478,10.4296933 31.0923361,9.45952678 L31.6094177,8.38356163 C32.0193917,7.52303337 31.8390569,6.49813617 31.1597816,5.82814445 L29.9682459,4.64009962 C29.2962855,3.96281439 28.2683769,3.78300787 27.4053202,4.19178083 L26.3261935,4.70734745 C25.3531764,5.13986494 24.2416852,5.13986494 23.2686681,4.70734745 C22.2831778,4.29139949 21.5225418,3.47590747 21.1778602,2.46575341 L20.9305604,1.47945206 C20.6087329,0.591898641 19.7638223,0.00040155049 18.8172707,-7.07888159e-15 L17.1536171,-7.07888159e-15 C16.2070655,0.000401565289 15.362155,0.591898653 15.0403275,1.47945206 L14.635655,2.60024906 C14.2909734,3.61040312 13.5303374,4.42589514 12.5448471,4.8418431 C11.57183,5.27436058 10.4603388,5.27436058 9.48732167,4.8418431 L8.40819501,4.32627648 C7.54513827,3.91750352 6.51722963,4.09731004 5.84526926,4.77459527 L4.65373361,5.9626401 C3.97445831,6.63263183 3.79412346,7.65752902 4.20409752,8.51805728 L4.72117903,9.59402243 C5.15496737,10.5641889 5.15496737,11.6724238 4.72117903,12.6425903 C4.30400889,13.6251934 3.48612071,14.3836009 2.47299853,14.7272727 L1.34890829,15.1307596 C0.55626846,15.4749871 0.0318250848,16.2419173 -6.37099343e-14,17.1033624 L-6.37099343e-14,18.762142 C0.00379398865,19.7117203 0.60725351,20.5558846 1.50628094,20.8692404 L2.63037117,21.2727273 C3.64349335,21.6163991 4.46138153,22.3748066 4.87855167,23.3574097 C5.31234002,24.3275762 5.31234002,25.4358111 4.87855167,26.4059776 L4.36147013,27.4819427 C3.95149608,28.342471 4.13183094,29.3673682 4.81110625,30.0373599 L6.0026419,31.2254047 C6.67460227,31.90269 7.70251091,32.0824965 8.56556766,31.6737235 L9.64469431,31.1581569 C10.6177115,30.7256394 11.7292026,30.7256394 12.7022198,31.1581569 C13.68771,31.5741049 14.448346,32.3895969 14.7930276,33.3997509 L15.1977001,34.5205479 C15.5195276,35.4081014 16.3644382,35.9995984 17.3109898,36 L18.9746433,36 C19.9211949,35.9995984 20.7661055,35.4081013 21.087933,34.5205479 L21.4926055,33.4221669 C21.8448521,32.4090676 22.6135286,31.5937223 23.6058951,31.1805728 C24.5648778,30.7557045 25.6594743,30.7557045 26.618457,31.1805728 L27.7200654,31.6961395 C28.5831222,32.1049124 29.6110308,31.9251059 30.2829912,31.2478207 L31.4745268,30.0597758 C32.1538021,29.3897841 32.334137,28.3648869 31.9241629,27.5043587 L31.4070814,26.4283935 C30.9799455,25.4646287 30.9799455,24.3660064 31.4070814,23.4022416 C31.8242516,22.4196385 32.6421397,21.6612309 33.6552619,21.3175592 L34.7793522,20.9140722 C35.5707392,20.4972042 36.0387384,19.651991 35.9708878,18.762142 L35.9708878,17.1033624 C35.9670938,16.1537841 35.3636343,15.3096198 34.4646069,14.996264 L34.4646069,14.996264 Z M24.5950945,19.2552926 C23.9317813,22.562803 20.9136815,24.8686777 17.5381022,24.6469435 C14.1625228,24.4252092 11.4739101,21.7444733 11.2515243,18.3787833 C11.0291385,15.0130934 13.3417886,12.0038356 16.6590174,11.3424658 C18.8702116,10.9016106 21.1560852,11.5917376 22.7505877,13.1815688 C24.3450902,14.7713999 25.037245,17.0505766 24.5950945,19.2552926 L24.5950945,19.2552926 Z" id="me_icon_setting"></path>
                </g>
            </g>
        </g>
    </g>
</svg>