<?xml version="1.0" encoding="UTF-8"?>
<svg width="28px" height="36px" viewBox="0 0 28 36" version="1.1" xmlns="http://www.w3.org/2000/svg" xmlns:xlink="http://www.w3.org/1999/xlink">
    <!-- Generator: Sketch 47.1 (45422) - http://www.bohemiancoding.com/sketch -->
    <title>me_icon_myrecord</title>
    <desc>Created with Sketch.</desc>
    <defs></defs>
    <g id="Page-1" stroke="none" stroke-width="1" fill="none" fill-rule="evenodd">
        <g id="我的" transform="translate(-34.000000, -491.000000)" fill-rule="nonzero" fill="#4FA8F9">
            <g id="表单/输入/双项输入" transform="translate(0.000000, 346.000000)">
                <g id="输入项一" transform="translate(34.000000, 138.000000)">
                    <path d="M25.7005479,14.1928762 L22.4900986,14.1928762 L22.4900986,12.6455619 C22.4900986,11.6203048 21.6502521,10.7862095 20.6179342,10.7862095 L18.3541918,10.7862095 C18.0604603,8.65070476 16.2119233,7 13.9823945,7 C11.7529041,7 9.90440548,8.65070476 9.61063562,10.7862095 L7.34700822,10.7862095 C6.31469041,10.7862095 5.47472877,11.6203048 5.47472877,12.6455619 L5.47472877,14.1928762 L2.26435616,14.1928762 C1.01586301,14.1928762 0,15.2017143 0,16.4418286 L0,40.7224762 C0,41.9624762 1.0157863,42.9713905 2.26435616,42.9713905 L25.7005479,42.9713905 C26.9490795,42.9713905 27.9649425,41.9624762 27.9649425,40.7224762 L27.9649425,16.4418286 C27.9649425,15.2017524 26.9491178,14.1928762 25.7005479,14.1928762 Z M21.6553534,36.9538667 L6.36083288,36.9538667 L6.36083288,35.1600381 L21.6553534,35.1600381 L21.6553534,36.9538667 Z M21.6553534,31.236 L6.36083288,31.236 L6.36083288,29.4421333 L21.6553534,29.4421333 L21.6553534,31.236 Z M21.6553534,25.5181714 L6.36083288,25.5181714 L6.36083288,23.7242667 L21.6553534,23.7242667 L21.6553534,25.5181714 Z" id="me_icon_myrecord"></path>
                </g>
            </g>
        </g>
    </g>
</svg>