<?xml version="1.0" encoding="UTF-8"?>
<svg width="36px" height="34px" viewBox="0 0 36 34" version="1.1" xmlns="http://www.w3.org/2000/svg" xmlns:xlink="http://www.w3.org/1999/xlink">
    <!-- Generator: Sketch 47.1 (45422) - http://www.bohemiancoding.com/sketch -->
    <title>me_icon_mycompany</title>
    <desc>Created with Sketch.</desc>
    <defs></defs>
    <g id="Page-1" stroke="none" stroke-width="1" fill="none" fill-rule="evenodd">
        <g id="我的" transform="translate(-30.000000, -373.000000)" fill-rule="nonzero" fill="#929FAC">
            <g id="表单/输入/双项输入" transform="translate(0.000000, 346.000000)">
                <g id="表单/输入/单项输入-copy">
                    <path d="M62.6519375,56.0244896 L62.6519375,36.1218874 C62.6519375,35.2059842 61.9022142,34.463359 60.9774724,34.463359 L54.279612,34.463359 L54.279612,29.4877739 C54.279612,28.1138818 53.9926557,27 52.6043546,27 L35.859779,27 C34.4731379,27 33.3481379,28.1139191 33.3481379,29.4877739 L33.3481379,56.0244522 L30.8372514,56.0244522 C30.3744844,56.0244522 30,56.3953351 30,56.8537351 L30,60.1707545 C30,60.6282577 30.3744844,61 30.8372514,61 L65.1635786,61 C65.6254779,61 66,60.628295 66,60.1707545 L66,56.8537351 C66,56.3953351 65.6255156,56.0244522 65.1635786,56.0244522 L62.6519375,56.0244896 Z M42.5584694,52.7074328 C42.5584694,53.6225886 41.8087461,54.3659612 40.8840043,54.3659612 L39.2095392,54.3659612 C38.2848352,54.3659612 37.5350741,53.6225513 37.5350741,52.7074328 L37.5350741,51.0489044 C37.5350741,50.1321792 38.2847974,49.3903761 39.2095392,49.3903761 L40.8840043,49.3903761 C41.8087084,49.3903761 42.5584694,50.1322165 42.5584694,51.0489044 L42.5584694,52.7074328 Z M42.5584694,44.4148656 C42.5584694,45.3299841 41.8087461,46.073394 40.8840043,46.073394 L39.2095392,46.073394 C38.2848352,46.073394 37.5350741,45.3299467 37.5350741,44.4148656 L37.5350741,42.7563373 C37.5350741,41.839612 38.2847974,41.0973978 39.2095392,41.0973978 L40.8840043,41.0973978 C41.8087084,41.0973978 42.5584694,41.8395746 42.5584694,42.7563373 L42.5584694,44.4148656 Z M42.5584694,36.1219248 C42.5584694,37.037828 41.8087461,37.7804532 40.8840043,37.7804532 L39.2095392,37.7804532 C38.2848352,37.7804532 37.5350741,37.0378653 37.5350741,36.1219248 L37.5350741,34.4633964 C37.5350741,33.5474932 38.2847974,32.804868 39.2095392,32.804868 L40.8840043,32.804868 C41.8087084,32.804868 42.5584694,33.5474559 42.5584694,34.4633964 L42.5584694,36.1219248 Z M50.0935435,52.7074328 C50.0935435,53.6225886 49.3437825,54.3659612 48.4190784,54.3659612 L46.7445756,54.3659612 C45.8199093,54.3659612 45.0701482,53.6225513 45.0701482,52.7074328 L45.0701482,51.0489044 C45.0701482,50.1321792 45.8198716,49.3903761 46.7445756,49.3903761 L48.4190784,49.3903761 C49.3437448,49.3903761 50.0935435,50.1322165 50.0935435,51.0489044 L50.0935435,52.7074328 Z M50.0935435,44.4148656 C50.0935435,45.3299841 49.3437825,46.073394 48.4190784,46.073394 L46.7445756,46.073394 C45.8199093,46.073394 45.0701482,45.3299467 45.0701482,44.4148656 L45.0701482,42.7563373 C45.0701482,41.839612 45.8198716,41.0973978 46.7445756,41.0973978 L48.4190784,41.0973978 C49.3437448,41.0973978 50.0935435,41.8395746 50.0935435,42.7563373 L50.0935435,44.4148656 Z M50.0935435,36.1219248 C50.0935435,37.037828 49.3437825,37.7804532 48.4190784,37.7804532 L46.7445756,37.7804532 C45.8199093,37.7804532 45.0701482,37.0378653 45.0701482,36.1219248 L45.0701482,34.4633964 C45.0701482,33.5474932 45.8198716,32.804868 46.7445756,32.804868 L48.4190784,32.804868 C49.3437448,32.804868 50.0935435,33.5474559 50.0935435,34.4633964 L50.0935435,36.1219248 Z M59.303045,50.2196963 C59.303045,50.6772368 58.9277684,51.0489792 58.4658313,51.0489792 L56.7913662,51.0489792 C56.3294292,51.0489792 55.9541148,50.6772742 55.9541148,50.2196963 L55.9541148,48.5612053 C55.9541148,48.1028053 56.3293915,47.7319224 56.7913662,47.7319224 L58.4658313,47.7319224 C58.9277306,47.7319224 59.303045,48.1028053 59.303045,48.5612053 L59.303045,50.2196963 Z M59.303045,43.5856201 C59.303045,44.0431233 58.9277684,44.4148656 58.4658313,44.4148656 L56.7913662,44.4148656 C56.3294292,44.4148656 55.9541148,44.0431607 55.9541148,43.5856201 L55.9541148,41.9270918 C55.9541148,41.4687291 56.3293915,41.0973978 56.7913662,41.0973978 L58.4658313,41.0973978 C58.9277306,41.0973978 59.303045,41.4687291 59.303045,41.9270918 L59.303045,43.5856201 Z" id="me_icon_mycompany"></path>
                </g>
            </g>
        </g>
    </g>
</svg>